<svg preserveAspectRatio="none" width="100%" height="100%" overflow="visible" style="display: block;" viewBox="0 0 24 24" fill="none" xmlns="http://www.w3.org/2000/svg">
<g id="24 Stroke / ds_ic_24_exclamation">
<path id="Union" d="M12 3C16.9706 3 21 7.02944 21 12C21 16.9706 16.9706 21 12 21C7.02944 21 3 16.9706 3 12C3 7.02944 7.02944 3 12 3ZM12 4.5C7.85786 4.5 4.5 7.85786 4.5 12C4.5 16.1421 7.85786 19.5 12 19.5C16.1421 19.5 19.5 16.1421 19.5 12C19.5 7.85786 16.1421 4.5 12 4.5ZM12 14.625C12.4832 14.625 12.875 15.0168 12.875 15.5V16C12.875 16.4832 12.4832 16.875 12 16.875C11.5168 16.875 11.125 16.4832 11.125 16V15.5C11.125 15.0168 11.5168 14.625 12 14.625ZM12 7.125C12.4832 7.125 12.875 7.51675 12.875 8V13C12.875 13.4832 12.4832 13.875 12 13.875C11.5168 13.875 11.125 13.4832 11.125 13V8C11.125 7.51675 11.5168 7.125 12 7.125Z" fill="var(--fill-0, #56FF71)"/>
</g>
</svg>
