<svg preserveAspectRatio="none" width="100%" height="100%" overflow="visible" style="display: block;" viewBox="0 0 38 38" fill="none" xmlns="http://www.w3.org/2000/svg">
<g id="38 Fill / ds_ic_38_box" clip-path="url(#clip0_0_323)">
<path id="Subtract" d="M19 0C29.4934 0 38 8.50659 38 19C38 29.4934 29.4934 38 19 38C8.50659 38 0 29.4934 0 19C2.57703e-07 8.50659 8.50659 2.5772e-07 19 0ZM9.5 15.834V27.4453C9.50012 28.0281 9.97287 28.5009 10.5557 28.501H27.4443C28.0272 28.501 28.4999 28.0282 28.5 27.4453V15.834H9.5ZM26.3896 21.1113V23.2227H22.167V21.1113H26.3896ZM26.3887 17.9453V20.0566H20.0557V17.9453H26.3887ZM9.5 9.5C8.91713 9.50012 8.44434 9.97277 8.44434 10.5557V12.667C8.44451 13.2497 8.91724 13.7225 9.5 13.7227H28.5C29.0829 13.7227 29.5555 13.2498 29.5557 12.667V10.5557C29.5557 9.9727 29.083 9.5 28.5 9.5H9.5Z" fill="var(--fill-0, #56FF71)"/>
</g>
<defs>
<clipPath id="clip0_0_323">
<rect width="38" height="38" fill="white"/>
</clipPath>
</defs>
</svg>
