<svg preserveAspectRatio="none" width="100%" height="100%" overflow="visible" style="display: block;" viewBox="0 0 38 38" fill="none" xmlns="http://www.w3.org/2000/svg">
<g id="38 Fill / ds_ic_38_paper_tray">
<path id="Subtract" d="M19 0C29.4934 0 38 8.50659 38 19C38 29.4934 29.4934 38 19 38C8.50659 38 0 29.4934 0 19C2.57703e-07 8.50659 8.50659 2.5772e-07 19 0ZM8.44434 23.2207V26.3877C8.44434 27.5536 9.38973 28.499 10.5557 28.499H27.4443C28.6103 28.499 29.5557 27.5536 29.5557 26.3877V23.2207H23.834C22.8974 25.0582 21.129 26.3866 19 26.3867C16.8708 26.3867 15.1016 25.0584 14.165 23.2207H8.44434ZM10.5557 10.5547C9.38973 10.5547 8.44434 11.5001 8.44434 12.666V21.1094H14.7793C15.2679 21.1095 15.692 21.413 15.8623 21.8506C16.4505 23.3618 17.6917 24.2764 19 24.2764C20.3081 24.2762 21.5486 23.3616 22.1367 21.8506C22.3071 21.4129 22.732 21.1094 23.2207 21.1094H29.5557V12.666C29.5557 11.5001 28.6103 10.5547 27.4443 10.5547H10.5557ZM27.4443 16.8887V19H10.5557V16.8887H27.4443ZM27.4443 12.666V14.7773H10.5557V12.666H27.4443Z" fill="var(--fill-0, #56FF71)"/>
</g>
</svg>
