<svg preserveAspectRatio="none" width="100%" height="100%" overflow="visible" style="display: block;" viewBox="0 0 38 38" fill="none" xmlns="http://www.w3.org/2000/svg">
<g id="38 Fill / ds_ic_38_case" clip-path="url(#clip0_0_511)">
<path id="Subtract" d="M19 0C29.4934 0 38 8.50659 38 19C38 29.4934 29.4934 38 19 38C8.50659 38 0 29.4934 0 19C2.57703e-07 8.50659 8.50659 2.5772e-07 19 0ZM8.44434 25.334V26.3896C8.44441 27.5555 9.38982 28.5009 10.5557 28.501H27.4443C28.6102 28.501 29.5556 27.5555 29.5557 26.3896V25.334H8.44434ZM10.5557 12.668C9.38978 12.668 8.44434 13.6134 8.44434 14.7793V23.2236H29.5557V14.7793C29.5557 13.6134 28.6103 12.668 27.4443 12.668H10.5557ZM20.0557 19C20.6385 19.0002 21.1113 19.4728 21.1113 20.0557C21.1113 20.6385 20.6384 21.1112 20.0557 21.1113H17.9443C17.3614 21.1113 16.8887 20.6386 16.8887 20.0557C16.8887 19.4727 17.3614 19 17.9443 19H20.0557ZM15.834 6.33398C14.0851 6.33404 12.667 7.75211 12.667 9.50098V10.0283C12.667 10.6112 13.1397 11.0839 13.7227 11.084C14.3056 11.0839 14.7783 10.6112 14.7783 10.0283V9.50098C14.7783 8.91805 15.2511 8.44537 15.834 8.44531H22.167C22.75 8.44531 23.2227 8.91801 23.2227 9.50098V10.0283C23.2227 10.6112 23.6954 11.0839 24.2783 11.084C24.8612 11.0839 25.334 10.6112 25.334 10.0283V9.50098C25.334 7.75207 23.9159 6.33398 22.167 6.33398H15.834Z" fill="var(--fill-0, #56FF71)"/>
</g>
<defs>
<clipPath id="clip0_0_511">
<rect width="38" height="38" fill="white"/>
</clipPath>
</defs>
</svg>
