<svg preserveAspectRatio="none" width="100%" height="100%" overflow="visible" style="display: block;" viewBox="0 0 38 38" fill="none" xmlns="http://www.w3.org/2000/svg">
<g id="38 Stroke / ds_ic_38_circle_plus">
<path id="Union" d="M18.7227 5C26.3012 5 32.4453 11.1441 32.4453 18.7227C32.4453 26.3012 26.3012 32.4453 18.7227 32.4453C11.1441 32.4453 5 26.3012 5 18.7227C5 11.1441 11.1441 5 18.7227 5ZM18.7227 7.11133C12.31 7.11133 7.11133 12.31 7.11133 18.7227C7.11133 25.1353 12.31 30.334 18.7227 30.334C25.1353 30.334 30.334 25.1353 30.334 18.7227C30.334 12.31 25.1353 7.11133 18.7227 7.11133ZM18.7227 11.334C19.3056 11.334 19.7783 11.8067 19.7783 12.3896V17.667H25.0557C25.6386 17.667 26.1113 18.1397 26.1113 18.7227C26.1113 19.3056 25.6386 19.7783 25.0557 19.7783H19.7783V25.0557C19.7783 25.6386 19.3056 26.1113 18.7227 26.1113C18.1397 26.1113 17.667 25.6386 17.667 25.0557V19.7783H12.3896C11.8067 19.7783 11.334 19.3056 11.334 18.7227C11.334 18.1397 11.8067 17.667 12.3896 17.667H17.667V12.3896C17.667 11.8067 18.1397 11.334 18.7227 11.334Z" fill="var(--fill-0, #ADFFC6)"/>
</g>
</svg>
