<svg preserveAspectRatio="none" width="100%" height="100%" overflow="visible" style="display: block;" viewBox="0 0 38 38" fill="none" xmlns="http://www.w3.org/2000/svg">
<g id="38 Fill / ds_ic_38_passport">
<path id="Subtract" d="M19 0C29.4934 2.2549e-07 38 8.50659 38 19C38 29.4934 29.4934 38 19 38C8.50659 38 2.25505e-07 29.4934 0 19C0 8.50659 8.50659 0 19 0ZM11.6113 8.44531C11.0284 8.44531 10.5557 8.91801 10.5557 9.50098V29.5566C10.5558 30.1395 11.0284 30.6123 11.6113 30.6123H26.3887C26.9716 30.6123 27.4442 30.1395 27.4443 29.5566V9.50098C27.4443 8.91801 26.9716 8.44531 26.3887 8.44531H11.6113ZM21.6387 25.334V27.4453H16.3613V25.334H21.6387ZM23.75 22.168V24.2793H14.25V22.168H23.75ZM19 11.5742C21.0403 11.5742 22.6943 13.2282 22.6943 15.2686C22.6943 17.3089 21.0404 18.9629 19 18.9629C16.9597 18.9628 15.3057 17.3089 15.3057 15.2686C15.3057 13.2283 16.9597 11.5743 19 11.5742Z" fill="var(--fill-0, #56FF71)"/>
</g>
</svg>
