<svg preserveAspectRatio="none" width="100%" height="100%" overflow="visible" style="display: block;" viewBox="0 0 38 38" fill="none" xmlns="http://www.w3.org/2000/svg">
<g id="38 Fill / ds_ic_38_student_hat">
<path id="Subtract" fill-rule="evenodd" clip-rule="evenodd" d="M19 38C29.4934 38 38 29.4934 38 19C38 8.50662 29.4934 0 19 0C8.50662 0 0 8.50662 0 19C0 29.4934 8.50662 38 19 38ZM6.20107 15.3056L18.4722 9.60824L30.7434 15.3056L18.4722 21.0029L6.20107 15.3056ZM26.3889 19.6549L18.9612 23.1034C18.6511 23.2474 18.2934 23.2474 17.9833 23.1034L10.5556 19.6548V24.2778C10.7315 25.6852 12.6667 28.5 18.4722 28.5C24.2778 28.5 26.2129 25.6852 26.3889 24.2778V19.6549ZM31.6667 19C31.6667 18.4171 31.194 17.9444 30.6111 17.9444C30.0281 17.9444 29.5556 18.4171 29.5556 19V23.2222C29.5556 23.8052 30.0281 24.2778 30.6111 24.2778C31.194 24.2778 31.6667 23.8052 31.6667 23.2222V19Z" fill="var(--fill-0, #56FF71)"/>
</g>
</svg>
