<svg preserveAspectRatio="none" width="100%" height="100%" overflow="visible" style="display: block;" viewBox="0 0 38 38" fill="none" xmlns="http://www.w3.org/2000/svg">
<g id="38 Fill / ds_ic_38_link" clip-path="url(#clip0_0_49)">
<path id="Subtract" d="M19 0C29.4934 0 38 8.50659 38 19C38 29.4934 29.4934 38 19 38C8.50659 38 0 29.4934 0 19C2.57703e-07 8.50659 8.50659 2.5772e-07 19 0ZM21.4023 16.3916C19.4087 14.4285 16.1934 14.4455 14.2207 16.4297L10.6172 20.0547C8.59158 22.0923 8.60917 25.3785 10.6562 27.3945C12.7034 29.4103 16.0047 29.3929 18.0303 27.3555L19.1992 26.1797C19.61 25.7663 19.6066 25.0995 19.1914 24.6904C18.7761 24.2814 18.1063 24.285 17.6953 24.6982L16.5264 25.874C15.3228 27.0847 13.3609 27.0951 12.1445 25.8975C10.9282 24.6996 10.9177 22.7469 12.1211 21.5361L15.7246 17.9111C16.8753 16.7538 18.7511 16.7436 19.9141 17.8887L20.0107 17.9844C20.426 18.3932 21.0958 18.3896 21.5068 17.9766C21.9176 17.5632 21.9142 16.8963 21.499 16.4873L21.4023 16.3916ZM27.3467 10.6055C25.2996 8.58943 21.9974 8.60705 19.9717 10.6445L18.8027 11.8203C18.3918 12.2336 18.3955 12.9005 18.8105 13.3096C19.2259 13.7185 19.8957 13.7151 20.3066 13.3018L21.4766 12.126C22.6802 10.9154 24.6421 10.9047 25.8584 12.1025C27.0746 13.3005 27.0843 15.2532 25.8809 16.4639L22.2773 20.0889C21.1266 21.2463 19.2508 21.2565 18.0879 20.1113L17.9912 20.0156C17.5759 19.6069 16.9061 19.6103 16.4951 20.0234C16.0842 20.4368 16.0878 21.1036 16.5029 21.5127L16.5996 21.6084C18.5933 23.5717 21.8095 23.5547 23.7822 21.5703L27.3857 17.9453C29.4109 15.9077 29.3935 12.6214 27.3467 10.6055Z" fill="var(--fill-0, #56FF71)"/>
</g>
<defs>
<clipPath id="clip0_0_49">
<rect width="38" height="38" fill="white"/>
</clipPath>
</defs>
</svg>
