<svg preserveAspectRatio="none" width="100%" height="100%" overflow="visible" style="display: block;" viewBox="0 0 83 72" fill="none" xmlns="http://www.w3.org/2000/svg">
<path id="quotes" d="M0 72V48.9474C0 42.8421 0.633588 36.9474 1.90076 31.2632C3.16794 25.3684 5.1743 19.7895 7.91985 14.5263C10.6654 9.26315 14.2557 4.42105 18.6908 0L31.0458 9.78948C27.6667 13.1579 24.9211 16.8421 22.8092 20.8421C20.9084 24.8421 19.43 28.9474 18.374 33.1579C17.5293 37.1579 17.1069 41.2632 17.1069 45.4737L11.4046 40.4211H32.6298V72H0ZM50.3702 72V48.9474C50.3702 42.8421 51.0038 36.9474 52.271 31.2632C53.5382 25.3684 55.5445 19.7895 58.2901 14.5263C61.0356 9.26315 64.6259 4.42105 69.0611 0L81.416 9.78948C78.0369 13.1579 75.2913 16.8421 73.1794 20.8421C71.2786 24.8421 69.8002 28.9474 68.7443 33.1579C67.8995 37.1579 67.4771 41.2632 67.4771 45.4737L61.7748 40.4211H83V72H50.3702Z" fill="var(--fill-0, #56FF71)"/>
</svg>
