<svg preserveAspectRatio="none" width="100%" height="100%" overflow="visible" style="display: block;" viewBox="0 0 58.8387 59.9865" fill="none" xmlns="http://www.w3.org/2000/svg">
<g id="Vector" style="mix-blend-mode:lighten">
<path d="M29.4194 0C30.5741 5.65116e-05 31.6874 0.438612 32.5422 1.23015C33.397 2.02168 33.932 3.10944 34.0428 4.28131L34.0645 4.73596V55.2529C34.0639 56.4692 33.6044 57.6386 32.7812 58.5188C31.958 59.399 30.8341 59.9226 29.6426 59.9811C28.451 60.0395 27.2831 59.6283 26.3808 58.8328C25.4785 58.0372 24.911 56.9181 24.7959 55.7076L24.7742 55.2529V4.73596C24.7742 3.47991 25.2636 2.2753 26.1347 1.38713C27.0059 0.498966 28.1874 0 29.4194 0ZM17.0323 9.47193C18.2642 9.47193 19.4457 9.97089 20.3169 10.8591C21.188 11.7472 21.6774 12.9518 21.6774 14.2079V45.781C21.6774 47.037 21.188 48.2417 20.3169 49.1298C19.4457 50.018 18.2642 50.517 17.0323 50.517C15.8003 50.517 14.6188 50.018 13.7476 49.1298C12.8765 48.2417 12.3871 47.037 12.3871 45.781V14.2079C12.3871 12.9518 12.8765 11.7472 13.7476 10.8591C14.6188 9.97089 15.8003 9.47193 17.0323 9.47193ZM41.8065 9.47193C43.0384 9.47193 44.2199 9.97089 45.0911 10.8591C45.9622 11.7472 46.4516 12.9518 46.4516 14.2079V45.781C46.4516 47.037 45.9622 48.2417 45.0911 49.1298C44.2199 50.018 43.0384 50.517 41.8065 50.517C40.5745 50.517 39.393 50.018 38.5218 49.1298C37.6507 48.2417 37.1613 47.037 37.1613 45.781V14.2079C37.1613 12.9518 37.6507 11.7472 38.5218 10.8591C39.393 9.97089 40.5745 9.47193 41.8065 9.47193ZM4.64516 18.9439C5.87714 18.9439 7.05865 19.4428 7.92979 20.331C8.80092 21.2192 9.29032 22.4238 9.29032 23.6798V36.3091C9.29032 37.5651 8.80092 38.7697 7.92979 39.6579C7.05865 40.5461 5.87714 41.045 4.64516 41.045C3.41319 41.045 2.23167 40.5461 1.36054 39.6579C0.4894 38.7697 0 37.5651 0 36.3091V23.6798C0 22.4238 0.4894 21.2192 1.36054 20.331C2.23167 19.4428 3.41319 18.9439 4.64516 18.9439ZM54.1936 18.9439C55.3483 18.9439 56.4616 19.3825 57.3164 20.174C58.1712 20.9655 58.7062 22.0533 58.817 23.2252L58.8387 23.6798V36.3091C58.8381 37.5253 58.3786 38.6947 57.5554 39.5749C56.7322 40.4552 55.6083 40.9788 54.4168 41.0372C53.2252 41.0957 52.0573 40.6845 51.155 39.8889C50.2527 39.0933 49.6852 37.9743 49.5701 36.7637L49.5484 36.3091V23.6798C49.5484 22.4238 50.0378 21.2192 50.9089 20.331C51.7801 19.4428 52.9616 18.9439 54.1936 18.9439Z" fill="url(#paint0_linear_0_4)"/>
</g>
<defs>
<linearGradient id="paint0_linear_0_4" x1="16.9077" y1="-4.47661" x2="74.0135" y2="50.4877" gradientUnits="userSpaceOnUse">
<stop stop-color="#ADFFC6"/>
<stop offset="1" stop-color="#1C4F5F"/>
</linearGradient>
</defs>
</svg>
